<svg width="25" height="24" viewBox="0 0 25 24" fill="none" xmlns="http://www.w3.org/2000/svg">
<path d="M12.1261 5L12.1261 5.01M12.1261 12L12.1261 12.01M12.1261 19L12.1261 19.01M12.1261 6C11.5732 6 11.1249 5.55228 11.1249 5C11.1249 4.44772 11.5732 4 12.1261 4C12.6791 4 13.1273 4.44772 13.1273 5C13.1273 5.55228 12.6791 6 12.1261 6ZM12.1261 13C11.5732 13 11.1249 12.5523 11.1249 12C11.1249 11.4477 11.5732 11 12.1261 11C12.6791 11 13.1273 11.4477 13.1273 12C13.1273 12.5523 12.6791 13 12.1261 13ZM12.1261 20C11.5732 20 11.1249 19.5523 11.1249 19C11.1249 18.4477 11.5732 18 12.1261 18C12.6791 18 13.1273 18.4477 13.1273 19C13.1273 19.5523 12.6791 20 12.1261 20Z" stroke="#111827" stroke-width="2" stroke-linecap="round" stroke-linejoin="round"/>
</svg>
